<svg height="246pt" viewbox="0.00 0.00 2916.00 246.00" width="2916pt" xmlns="http://www.w3.org/2000/svg" xmlns:xlink="http://www.w3.org/1999/xlink">
 <defs>
  <pattern height="15" id="play-image" width="15">
   <image height="23" width="23" x="-1.35" xlink:href="./video.png" y="-1.35">
   </image>
  </pattern>
  <pattern height="10" id="active-image" width="10">
   <image height="14" width="14" x="3" xlink:href="./check.ico" y="3">
   </image>
  </pattern>
 </defs>
 \n
 <g class="graph" id="graph0" transform="scale(1 1) rotate(0) translate(4 242)">
  \n
  \n
  <polygon fill="white" points="-4,4 -4,-242 2912,-242 2912,4 -4,4" stroke="none">
  </polygon>
  \n
  <!-- node&#45;34534534 -->
  \n
  <g class="node" id="node-34534534">
   <rect class="rect" height="38.0" rx="20" ry="20" stroke="#DD9CAC" width="133.0" x="518.0" y="-125.5">
   </rect>
   \n
   \n
   <text font-family="Times,serif" font-size="14.00" text-anchor="middle" x="584.5" y="-110.3">
    Finishing
   </text>
   \n
   <text font-family="Times,serif" font-size="14.00" text-anchor="middle" x="584.5" y="-95.3">
    Scheduling
   </text>
   \n
  </g>
  \n
  <!-- node&#45;43543434 -->
  \n
  <g class="node" id="node-43543434">
   <rect class="rect" height="29.0" rx="20" ry="20" stroke="#828E99" width="199.0" x="687.0" y="-213.0">
   </rect>
   \n
   \n
   <text font-family="Times,serif" font-size="14.00" text-anchor="middle" x="786.5" y="-194.8">
    MVM Implementation
   </text>
   \n
  </g>
  \n
  <!-- node&#45;34534534&#45;&gt;node&#45;43543434 -->
  \n
  <g class="edge" id="edge2">
   \n
   <path d="M651.256,-116C677.286,-116 701,-116 701,-116 701,-116 701,-173.751 701,-173.751" fill="none" stroke="black">
   </path>
   \n
   <polygon fill="black" points="697.5,-173.751 701,-183.751 704.5,-173.751 697.5,-173.751" stroke="black">
   </polygon>
   \n
  </g>
  \n
  <!-- node&#45;23432234 -->
  \n
  <g class="node" id="node-23432234">
   <rect class="rect" height="83.0" rx="20" ry="20" stroke="#828E99" width="127.0" x="723.0" y="-148.0">
   </rect>
   \n
   \n
   <text font-family="Times,serif" font-size="14.00" text-anchor="middle" x="786.5" y="-132.8">
    Virtual
   </text>
   \n
   <text font-family="Times,serif" font-size="14.00" text-anchor="middle" x="786.5" y="-117.8">
    Memory
   </text>
   \n
   <text font-family="Times,serif" font-size="14.00" text-anchor="middle" x="786.5" y="-102.8">
    - Page
   </text>
   \n
   <text font-family="Times,serif" font-size="14.00" text-anchor="middle" x="786.5" y="-87.8">
    Tables
   </text>
   \n
   <text font-family="Times,serif" font-size="14.00" text-anchor="middle" x="786.5" y="-72.8">
    and TLBs
   </text>
   \n
  </g>
  \n
  <!-- node&#45;34534534&#45;&gt;node&#45;23432234 -->
  \n
  <g class="edge" id="edge15">
   \n
   <path d="M651.202,-106.5C651.202,-106.5 712.953,-106.5 712.953,-106.5" fill="none" stroke="black">
   </path>
   \n
   <polygon fill="black" points="712.953,-110 722.953,-106.5 712.953,-103 712.953,-110" stroke="black">
   </polygon>
   \n
  </g>
  \n
  <!-- node&#45;345343345 -->
  \n
  <g class="node" id="node-345343345">
   <rect class="rect" height="28.999999999999996" rx="20" ry="20" stroke="#DD9CAC" width="143.0" x="715.0" y="-29.0">
   </rect>
   \n
   \n
   <text font-family="Times,serif" font-size="14.00" text-anchor="middle" x="786.5" y="-10.8">
    File Systems
   </text>
   \n
  </g>
  \n
  <!-- node&#45;34534534&#45;&gt;node&#45;345343345 -->
  \n
  <g class="edge" id="edge17">
   \n
   <path d="M651.356,-97C685.112,-97 719,-97 719,-97 719,-97 719,-39.2493 719,-39.2493" fill="none" stroke="black">
   </path>
   \n
   <polygon fill="black" points="722.5,-39.2493 719,-29.2493 715.5,-39.2494 722.5,-39.2493" stroke="black">
   </polygon>
   \n
  </g>
  \n
  <!-- node&#45;34543543 -->
  \n
  <g class="node" id="node-34543543">
   <rect class="rect" height="38.0" rx="20" ry="20" stroke="#828E99" width="150.0" x="332.0" y="-125.5">
   </rect>
   \n
   \n
   <text font-family="Times,serif" font-size="14.00" text-anchor="middle" x="407" y="-110.3">
    Monitors
   </text>
   \n
   <text font-family="Times,serif" font-size="14.00" text-anchor="middle" x="407" y="-95.3">
    and Examples
   </text>
   \n
  </g>
  \n
  <!-- node&#45;34543543&#45;&gt;node&#45;34534534 -->
  \n
  <g class="edge" id="edge1">
   \n
   <path d="M482.019,-106.5C482.019,-106.5 507.911,-106.5 507.911,-106.5" fill="none" stroke="black">
   </path>
   \n
   <polygon fill="black" points="507.911,-110 517.911,-106.5 507.911,-103 507.911,-110" stroke="black">
   </polygon>
   \n
  </g>
  \n
  <!-- node&#45;34543243 -->
  \n
  <g class="node" id="node-34543243">
   <rect class="rect" height="38.0" rx="20" ry="20" stroke="#828E99" width="145.0" x="2019.0" y="-230.5">
   </rect>
   \n
   \n
   <text font-family="Times,serif" font-size="14.00" text-anchor="middle" x="2091.5" y="-215.3">
    Memory
   </text>
   \n
   <text font-family="Times,serif" font-size="14.00" text-anchor="middle" x="2091.5" y="-200.3">
    Management
   </text>
   \n
  </g>
  \n
  <!-- node&#45;23432344 -->
  \n
  <g class="node" id="node-23432344">
   <rect class="rect" height="29.0" rx="20" ry="20" stroke="#828E99" width="133.0" x="2200.0" y="-226.0">
   </rect>
   \n
   \n
   <text font-family="Times,serif" font-size="14.00" text-anchor="middle" x="2266.5" y="-207.8">
    Scheduling
   </text>
   \n
  </g>
  \n
  <!-- node&#45;34543243&#45;&gt;node&#45;23432344 -->
  \n
  <g class="edge" id="edge5">
   \n
   <path d="M2164.2,-211.5C2164.2,-211.5 2189.91,-211.5 2189.91,-211.5" fill="none" stroke="black">
   </path>
   \n
   <polygon fill="black" points="2189.91,-215 2199.91,-211.5 2189.91,-208 2189.91,-215" stroke="black">
   </polygon>
   \n
  </g>
  \n
  <!-- node&#45;34543355 -->
  \n
  <g class="node" id="node-34543355">
   <rect class="rect" height="29.0" rx="20" ry="20" stroke="#DD9CAC" width="120.0" x="1836.0" y="-226.0">
   </rect>
   \n
   \n
   <text font-family="Times,serif" font-size="14.00" text-anchor="middle" x="1896" y="-207.8">
    Disk I/O
   </text>
   \n
  </g>
  \n
  <!-- node&#45;34543355&#45;&gt;node&#45;34543243 -->
  \n
  <g class="edge" id="edge3">
   \n
   <path d="M1956.25,-211.5C1956.25,-211.5 2008.72,-211.5 2008.72,-211.5" fill="none" stroke="black">
   </path>
   \n
   <polygon fill="black" points="2008.72,-215 2018.72,-211.5 2008.72,-208 2008.72,-215" stroke="black">
   </polygon>
   \n
  </g>
  \n
  <!-- node&#45;54345634 -->
  \n
  <g class="node" id="node-54345634">
   <rect class="rect" height="29.0" rx="20" ry="20" stroke="#828E99" width="124.0" x="1255.0" y="-156.0">
   </rect>
   \n
   \n
   <text font-family="Times,serif" font-size="14.00" text-anchor="middle" x="1317" y="-137.8">
    Deadlock
   </text>
   \n
  </g>
  \n
  <!-- node&#45;34554332 -->
  \n
  <g class="node" id="node-34554332">
   <rect class="rect" height="29.0" rx="20" ry="20" stroke="#828E99" width="180.0" x="1415.0" y="-156.0">
   </rect>
   \n
   \n
   <text font-family="Times,serif" font-size="14.00" text-anchor="middle" x="1505" y="-137.8">
    Shell Programming
   </text>
   \n
  </g>
  \n
  <!-- node&#45;54345634&#45;&gt;node&#45;34554332 -->
  \n
  <g class="edge" id="edge10">
   \n
   <path d="M1379.08,-141.5C1379.08,-141.5 1404.76,-141.5 1404.76,-141.5" fill="none" stroke="black">
   </path>
   \n
   <polygon fill="black" points="1404.76,-145 1414.76,-141.5 1404.76,-138 1404.76,-145" stroke="black">
   </polygon>
   \n
  </g>
  \n
  <!-- node&#45;76745560 -->
  \n
  <g class="node" id="node-76745560">
   <rect class="rect" height="29.0" rx="20" ry="20" stroke="#828E99" width="118.0" x="1101.0" y="-156.0">
   </rect>
   \n
   \n
   <text font-family="Times,serif" font-size="14.00" text-anchor="middle" x="1160" y="-137.8">
    Security
   </text>
   \n
  </g>
  \n
  <!-- node&#45;76745560&#45;&gt;node&#45;54345634 -->
  \n
  <g class="edge" id="edge4">
   \n
   <path d="M1219.35,-141.5C1219.35,-141.5 1244.95,-141.5 1244.95,-141.5" fill="none" stroke="black">
   </path>
   \n
   <polygon fill="black" points="1244.95,-145 1254.95,-141.5 1244.95,-138 1244.95,-145" stroke="black">
   </polygon>
   \n
  </g>
  \n
  <!-- node&#45;23442323 -->
  \n
  <g class="node" id="node-23442323">
   <rect class="rect" height="53.0" rx="20" ry="20" stroke="#828E99" width="143.0" x="2369.0" y="-238.0">
   </rect>
   \n
   \n
   <text font-family="Times,serif" font-size="14.00" text-anchor="middle" x="2440.5" y="-222.8">
    Locks,
   </text>
   \n
   <text font-family="Times,serif" font-size="14.00" text-anchor="middle" x="2440.5" y="-207.8">
    Semaphores,
   </text>
   \n
   <text font-family="Times,serif" font-size="14.00" text-anchor="middle" x="2440.5" y="-192.8">
    Monitors
   </text>
   \n
  </g>
  \n
  <!-- node&#45;23432344&#45;&gt;node&#45;23442323 -->
  \n
  <g class="edge" id="edge6">
   \n
   <path d="M2333.28,-211.5C2333.28,-211.5 2358.99,-211.5 2358.99,-211.5" fill="none" stroke="black">
   </path>
   \n
   <polygon fill="black" points="2358.99,-215 2368.99,-211.5 2358.99,-208 2358.99,-215" stroke="black">
   </polygon>
   \n
  </g>
  \n
  <!-- node&#45;23443223 -->
  \n
  <g class="node" id="node-23443223">
   <rect class="rect" height="53.0" rx="20" ry="20" stroke="#828E99" width="175.0" x="2548.0" y="-238.0">
   </rect>
   \n
   \n
   <text font-family="Times,serif" font-size="14.00" text-anchor="middle" x="2635.5" y="-222.8">
    Threads
   </text>
   \n
   <text font-family="Times,serif" font-size="14.00" text-anchor="middle" x="2635.5" y="-207.8">
    &amp; Intro
   </text>
   \n
   <text font-family="Times,serif" font-size="14.00" text-anchor="middle" x="2635.5" y="-192.8">
    to Synchronization
   </text>
   \n
  </g>
  \n
  <!-- node&#45;23442323&#45;&gt;node&#45;23443223 -->
  \n
  <g class="edge" id="edge8">
   \n
   <path d="M2512,-211.5C2512,-211.5 2537.76,-211.5 2537.76,-211.5" fill="none" stroke="black">
   </path>
   \n
   <polygon fill="black" points="2537.76,-215 2547.76,-211.5 2537.76,-208 2537.76,-215" stroke="black">
   </polygon>
   \n
  </g>
  \n
  <!-- node&#45;43223444 -->
  \n
  <g class="node" id="node-43223444">
   <rect class="rect" height="38.0" rx="20" ry="20" stroke="#828E99" width="174.0" x="1809.0" y="-160.5">
   </rect>
   \n
   \n
   <text font-family="Times,serif" font-size="14.00" text-anchor="middle" x="1896" y="-145.3">
    Page Replacement
   </text>
   \n
   <text font-family="Times,serif" font-size="14.00" text-anchor="middle" x="1896" y="-130.3">
    Policies
   </text>
   \n
  </g>
  \n
  <!-- node&#45;23432233 -->
  \n
  <g class="node" id="node-23432233">
   <rect class="rect" height="29.0" rx="20" ry="20" stroke="#828E99" width="110.0" x="2036.5" y="-156.0">
   </rect>
   \n
   \n
   <text font-family="Times,serif" font-size="14.00" text-anchor="middle" x="2091.5" y="-137.8">
    Paging
   </text>
   \n
  </g>
  \n
  <!-- node&#45;43223444&#45;&gt;node&#45;23432233 -->
  \n
  <g class="edge" id="edge14">
   \n
   <path d="M1983.17,-141.5C1983.17,-141.5 2026.49,-141.5 2026.49,-141.5" fill="none" stroke="black">
   </path>
   \n
   <polygon fill="black" points="2026.49,-145 2036.49,-141.5 2026.49,-138 2026.49,-145" stroke="black">
   </polygon>
   \n
  </g>
  \n
  <!-- node&#45;34554343 -->
  \n
  <g class="node" id="node-34554343">
   <rect class="rect" height="38.0" rx="20" ry="20" stroke="#828E99" width="142.0" x="1631.0" y="-160.5">
   </rect>
   \n
   \n
   <text font-family="Times,serif" font-size="14.00" text-anchor="middle" x="1702" y="-145.3">
    Concurrency
   </text>
   \n
   <text font-family="Times,serif" font-size="14.00" text-anchor="middle" x="1702" y="-130.3">
    and Threads
   </text>
   \n
  </g>
  \n
  <!-- node&#45;34554343&#45;&gt;node&#45;34543355 -->
  \n
  <g class="edge" id="edge19">
   \n
   <path d="M1702,-160.552C1702,-179.256 1702,-205 1702,-205 1702,-205 1825.95,-205 1825.95,-205" fill="none" stroke="black">
   </path>
   \n
   <polygon fill="black" points="1825.95,-208.5 1835.95,-205 1825.95,-201.5 1825.95,-208.5" stroke="black">
   </polygon>
   \n
  </g>
  \n
  <!-- node&#45;34554343&#45;&gt;node&#45;43223444 -->
  \n
  <g class="edge" id="edge7">
   \n
   <path d="M1773.14,-141.5C1773.14,-141.5 1798.71,-141.5 1798.71,-141.5" fill="none" stroke="black">
   </path>
   \n
   <polygon fill="black" points="1798.71,-145 1808.71,-141.5 1798.71,-138 1798.71,-145" stroke="black">
   </polygon>
   \n
  </g>
  \n
  <!-- node&#45;32342333 -->
  \n
  <g class="node" id="node-32342333">
   <rect class="rect" height="53.0" rx="20" ry="20" stroke="#828E99" width="118.0" x="1837.0" y="-86.0">
   </rect>
   \n
   \n
   <text font-family="Times,serif" font-size="14.00" text-anchor="middle" x="1896" y="-70.8">
    Paging
   </text>
   \n
   <text font-family="Times,serif" font-size="14.00" text-anchor="middle" x="1896" y="-55.8">
    Design,
   </text>
   \n
   <text font-family="Times,serif" font-size="14.00" text-anchor="middle" x="1896" y="-40.8">
    Features
   </text>
   \n
  </g>
  \n
  <!-- node&#45;34554343&#45;&gt;node&#45;32342333 -->
  \n
  <g class="edge" id="edge21">
   \n
   <path d="M1702,-122.372C1702,-101.646 1702,-71.5 1702,-71.5 1702,-71.5 1826.74,-71.5 1826.74,-71.5" fill="none" stroke="black">
   </path>
   \n
   <polygon fill="black" points="1826.74,-75.0001 1836.74,-71.5 1826.74,-68.0001 1826.74,-75.0001" stroke="black">
   </polygon>
   \n
  </g>
  \n
  <!-- node&#45;43233342 -->
  \n
  <g class="node" id="node-43233342">
   <rect class="rect" height="38.0" rx="20" ry="20" stroke="#828E99" width="149.0" x="2759.0" y="-230.5">
   </rect>
   \n
   \n
   <text font-family="Times,serif" font-size="14.00" text-anchor="middle" x="2833.5" y="-215.3">
    Bootstrapping
   </text>
   \n
   <text font-family="Times,serif" font-size="14.00" text-anchor="middle" x="2833.5" y="-200.3">
    &amp; Processes
   </text>
   \n
  </g>
  \n
  <!-- node&#45;23443223&#45;&gt;node&#45;43233342 -->
  \n
  <g class="edge" id="edge22">
   \n
   <path d="M2723.21,-211.5C2723.21,-211.5 2748.86,-211.5 2748.86,-211.5" fill="none" stroke="black">
   </path>
   \n
   <polygon fill="black" points="2748.86,-215 2758.86,-211.5 2748.86,-208 2748.86,-215" stroke="black">
   </polygon>
   \n
  </g>
  \n
  <!-- node&#45;28545640 -->
  \n
  <g class="node" id="node-28545640">
   <rect class="rect" height="38.0" rx="20" ry="20" stroke="#828E99" width="143.0" x="922.0" y="-160.5">
   </rect>
   \n
   \n
   <text font-family="Times,serif" font-size="14.00" text-anchor="middle" x="993.5" y="-145.3">
    Example
   </text>
   \n
   <text font-family="Times,serif" font-size="14.00" text-anchor="middle" x="993.5" y="-130.3">
    File Systems
   </text>
   \n
  </g>
  \n
  <!-- node&#45;28545640&#45;&gt;node&#45;76745560 -->
  \n
  <g class="edge" id="edge9">
   \n
   <path d="M1065.08,-141.5C1065.08,-141.5 1090.75,-141.5 1090.75,-141.5" fill="none" stroke="black">
   </path>
   \n
   <polygon fill="black" points="1090.75,-145 1100.75,-141.5 1090.75,-138 1090.75,-145" stroke="black">
   </polygon>
   \n
  </g>
  \n
  <!-- node&#45;34554332&#45;&gt;node&#45;34554343 -->
  \n
  <g class="edge" id="edge12">
   \n
   <path d="M1595.14,-141.5C1595.14,-141.5 1620.79,-141.5 1620.79,-141.5" fill="none" stroke="black">
   </path>
   \n
   <polygon fill="black" points="1620.79,-145 1630.79,-141.5 1620.79,-138 1620.79,-145" stroke="black">
   </polygon>
   \n
  </g>
  \n
  <!-- node&#45;34530 -->
  \n
  <g class="node" id="node-34530">
   <rect class="rect" height="29.0" rx="20" ry="20" stroke="#FB154A" width="99.0" x="0.0" y="-86.0">
   </rect>
   \n
   \n
   <text font-family="Times,serif" font-size="14.00" text-anchor="middle" x="49.5" y="-67.8">
    Intro
   </text>
   \n
  </g>
  \n
  <!-- node&#45;23453422 -->
  \n
  <g class="node" id="node-23453422">
   <rect class="rect" height="29.0" rx="20" ry="20" stroke="#C826FB" width="161.0" x="135.0" y="-121.0">
   </rect>
   \n
   \n
   <text font-family="Times,serif" font-size="14.00" text-anchor="middle" x="215.5" y="-102.8">
    Synchronization
   </text>
   \n
  </g>
  \n
  <!-- node&#45;34530&#45;&gt;node&#45;23453422 -->
  \n
  <g class="edge" id="edge16">
   \n
   <path d="M99.1069,-75.5C123.193,-75.5 147,-75.5 147,-75.5 147,-75.5 147,-81.7263 147,-81.7263" fill="none" stroke="black">
   </path>
   \n
   <polygon fill="black" points="143.5,-81.7263 147,-91.7263 150.5,-81.7264 143.5,-81.7263" stroke="black">
   </polygon>
   \n
  </g>
  \n
  <!-- node&#45;123452 -->
  \n
  <g class="node" id="node-123452">
   <rect class="rect" height="38.0" rx="20" ry="20" stroke="#828E99" width="113.0" x="159.0" y="-55.5">
   </rect>
   \n
   \n
   <text font-family="Times,serif" font-size="14.00" text-anchor="middle" x="215.5" y="-40.3">
    System
   </text>
   \n
   <text font-family="Times,serif" font-size="14.00" text-anchor="middle" x="215.5" y="-25.3">
    Calls
   </text>
   \n
  </g>
  \n
  <!-- node&#45;34530&#45;&gt;node&#45;123452 -->
  \n
  <g class="edge" id="edge20">
   \n
   <path d="M99.0047,-61C148.084,-61 216,-61 216,-61 216,-61 216,-60.4804 216,-60.4804" fill="none" stroke="black">
   </path>
   \n
   <polygon fill="black" points="219.5,-65.8041 216,-55.8042 212.5,-65.8043 219.5,-65.8041" stroke="black">
   </polygon>
   \n
  </g>
  \n
  <!-- node&#45;234322342 -->
  \n
  <g class="node" id="node-234322342">
   <rect class="rect" height="29.0" rx="20" ry="20" stroke="#DD9CAC" width="142.0" x="922.5" y="-86.0">
   </rect>
   \n
   \n
   <text font-family="Times,serif" font-size="14.00" text-anchor="middle" x="993.5" y="-67.8">
    Transactions
   </text>
   \n
  </g>
  \n
  <!-- node&#45;23432234&#45;&gt;node&#45;28545640 -->
  \n
  <g class="edge" id="edge13">
   \n
   <path d="M850.014,-135.25C850.014,-135.25 911.787,-135.25 911.787,-135.25" fill="none" stroke="black">
   </path>
   \n
   <polygon fill="black" points="911.787,-138.75 921.787,-135.25 911.787,-131.75 911.787,-138.75" stroke="black">
   </polygon>
   \n
  </g>
  \n
  <!-- node&#45;23432234&#45;&gt;node&#45;234322342 -->
  \n
  <g class="edge" id="edge11">
   \n
   <path d="M850.014,-75.5C850.014,-75.5 912.154,-75.5 912.154,-75.5" fill="none" stroke="black">
   </path>
   \n
   <polygon fill="black" points="912.154,-79.0001 922.154,-75.5 912.154,-72.0001 912.154,-79.0001" stroke="black">
   </polygon>
   \n
  </g>
  \n
  <!-- node&#45;23453422&#45;&gt;node&#45;34543543 -->
  \n
  <g class="edge" id="edge18">
   \n
   <path d="M296.158,-106.5C296.158,-106.5 321.928,-106.5 321.928,-106.5" fill="none" stroke="black">
   </path>
   \n
   <polygon fill="black" points="321.928,-110 331.928,-106.5 321.928,-103 321.928,-110" stroke="black">
   </polygon>
   \n
  </g>
  \n
 </g>
 \n
</svg>
