<svg \n="" height="167pt" viewbox="0.00 0.00 240.10 167.00" width="240pt" xmlns="http://www.w3.org/2000/svg" xmlns:xlink="http://www.w3.org/1999/xlink">
 <defs>
  <pattern height="15" id="play-image" width="15">
   <image height="23" width="23" x="-1.35" xlink:href="./video.png" y="-1.35">
   </image>
  </pattern>
  <pattern height="10" id="active-image" width="10">
   <image "="" height="14" width="14" x="3" xlink:href="./check.ico" y="3">
   </image>
  </pattern>
 </defs>
 \n
 <g class="graph" id="graph0" transform="scale(1 1) rotate(0) translate(4 163)">
  \n
  \n
  <polygon fill="white" points="-4,4 -4,-163 236.104,-163 236.104,4 -4,4" stroke="none">
  </polygon>
  \n
  <!-- node&#45;1 -->
  \n
  <g class="node" id="node-1">
   <rect class="rect" height="29.0" rx="20" ry="20" stroke="#07A8A1" width="79.0" x="15.5518" y="-29.0">
   </rect>
   \n
   \n
   <text font-family="Times,serif" font-size="14.00" text-anchor="middle" x="55.0518" y="-10.3">
    1
   </text>
   \n
  </g>
  \n
  <!-- node&#45;2 -->
  \n
  <g class="node" id="node-2">
   <rect class="rect" height="29.0" rx="20" ry="20" stroke="#8B77B6" width="110.2068065" x="-0.0518065" y="-94.0">
   </rect>
   \n
   \n
   <text font-family="Times,serif" font-size="14.00" text-anchor="middle" x="55.0518" y="-75.3">
    2-test3
   </text>
   \n
  </g>
  \n
  <!-- node&#45;5 -->
  \n
  <g class="node" id="node-5">
   <rect class="rect" height="29.0" rx="20" ry="20" stroke="#8B77B6" width="86.0" x="146.104" y="-94.0">
   </rect>
   \n
   \n
   <text font-family="Times,serif" font-size="14.00" text-anchor="middle" x="189.104" y="-75.3">
    45
   </text>
   \n
  </g>
  \n
  <!-- node&#45;2&#45;&gt;node&#45;5 -->
  \n
  <g class="edge" id="edge1">
   \n
   <path d="M110.35,-79.5C110.35,-79.5 135.806,-79.5 135.806,-79.5" fill="none" stroke="black">
   </path>
   \n
   <polygon fill="black" points="135.806,-83.0001 145.806,-79.5 135.806,-76.0001 135.806,-83.0001" stroke="black">
   </polygon>
   \n
  </g>
  \n
  <!-- node&#45;4 -->
  \n
  <g class="node" id="node-4">
   <rect class="rect" height="29.0" rx="20" ry="20" stroke="#8B77B6" width="79.0" x="15.5518" y="-159.0">
   </rect>
   \n
   \n
   <text font-family="Times,serif" font-size="14.00" text-anchor="middle" x="55.0518" y="-140.3">
    4
   </text>
   \n
  </g>
  \n
 </g>
 \n
</svg>
